<svg height="1502" width="720" xmlns="http://www.w3.org/2000/svg">
<rect height="1502" fill="#555" width="720"></rect>
<text fill="#7f7" font-family="Courier New" font-size="12" xml:space="preserve">
<tspan x="10" y="26">6 megabytes installed</tspan>
<tspan x="10" y="42"></tspan>
<tspan x="10" y="58">node_modules</tspan>
<tspan x="10" y="74">└─┬ grunt-contrib-uglify@2.3.0 </tspan>
<tspan x="10" y="90">  ├─┬ chalk@1.1.3 </tspan>
<tspan x="10" y="106">  │ ├── ansi-styles@2.2.1 </tspan>
<tspan x="10" y="122">  │ ├── escape-string-regexp@1.0.5 </tspan>
<tspan x="10" y="138">  │ ├─┬ has-ansi@2.0.0 </tspan>
<tspan x="10" y="154">  │ │ └── ansi-regex@2.1.1 </tspan>
<tspan x="10" y="170">  │ ├── strip-ansi@3.0.1 </tspan>
<tspan x="10" y="186">  │ └── supports-color@2.0.0 </tspan>
<tspan x="10" y="202">  ├─┬ maxmin@1.1.0 </tspan>
<tspan x="10" y="218">  │ ├─┬ figures@1.7.0 </tspan>
<tspan x="10" y="234">  │ │ └── object-assign@4.1.1 </tspan>
<tspan x="10" y="250">  │ ├─┬ gzip-size@1.0.0 </tspan>
<tspan x="10" y="266">  │ │ ├─┬ browserify-zlib@0.1.4 </tspan>
<tspan x="10" y="282">  │ │ │ └── pako@0.2.9 </tspan>
<tspan x="10" y="298">  │ │ └─┬ concat-stream@1.6.0 </tspan>
<tspan x="10" y="314">  │ │   ├── inherits@2.0.3 </tspan>
<tspan x="10" y="330">  │ │   ├─┬ readable-stream@2.2.9 </tspan>
<tspan x="10" y="346">  │ │   │ ├── buffer-shims@1.0.0 </tspan>
<tspan x="10" y="362">  │ │   │ ├── core-util-is@1.0.2 </tspan>
<tspan x="10" y="378">  │ │   │ ├── isarray@1.0.0 </tspan>
<tspan x="10" y="394">  │ │   │ ├── process-nextick-args@1.0.7 </tspan>
<tspan x="10" y="410">  │ │   │ ├── string_decoder@1.0.0 </tspan>
<tspan x="10" y="426">  │ │   │ └── util-deprecate@1.0.2 </tspan>
<tspan x="10" y="442">  │ │   └── typedarray@0.0.6 </tspan>
<tspan x="10" y="458">  │ └─┬ pretty-bytes@1.0.4 </tspan>
<tspan x="10" y="474">  │   ├── get-stdin@4.0.1 </tspan>
<tspan x="10" y="490">  │   └─┬ meow@3.7.0 </tspan>
<tspan x="10" y="506">  │     ├─┬ camelcase-keys@2.1.0 </tspan>
<tspan x="10" y="522">  │     │ └── camelcase@2.1.1 </tspan>
<tspan x="10" y="538">  │     ├─┬ loud-rejection@1.6.0 </tspan>
<tspan x="10" y="554">  │     │ ├─┬ currently-unhandled@0.4.1 </tspan>
<tspan x="10" y="570">  │     │ │ └── array-find-index@1.0.2 </tspan>
<tspan x="10" y="586">  │     │ └── signal-exit@3.0.2 </tspan>
<tspan x="10" y="602">  │     ├── map-obj@1.0.1 </tspan>
<tspan x="10" y="618">  │     ├── minimist@1.2.0 </tspan>
<tspan x="10" y="634">  │     ├─┬ normalize-package-data@2.3.6 </tspan>
<tspan x="10" y="650">  │     │ ├── hosted-git-info@2.4.1 </tspan>
<tspan x="10" y="666">  │     │ ├─┬ is-builtin-module@1.0.0 </tspan>
<tspan x="10" y="682">  │     │ │ └── builtin-modules@1.1.1 </tspan>
<tspan x="10" y="698">  │     │ ├── semver@5.3.0 </tspan>
<tspan x="10" y="714">  │     │ └─┬ validate-npm-package-license@3.0.1 </tspan>
<tspan x="10" y="730">  │     │   ├─┬ spdx-correct@1.0.2 </tspan>
<tspan x="10" y="746">  │     │   │ └── spdx-license-ids@1.2.2 </tspan>
<tspan x="10" y="762">  │     │   └── spdx-expression-parse@1.0.4 </tspan>
<tspan x="10" y="778">  │     ├─┬ read-pkg-up@1.0.1 </tspan>
<tspan x="10" y="794">  │     │ ├─┬ find-up@1.1.2 </tspan>
<tspan x="10" y="810">  │     │ │ ├── path-exists@2.1.0 </tspan>
<tspan x="10" y="826">  │     │ │ └─┬ pinkie-promise@2.0.1 </tspan>
<tspan x="10" y="842">  │     │ │   └── pinkie@2.0.4 </tspan>
<tspan x="10" y="858">  │     │ └─┬ read-pkg@1.1.0 </tspan>
<tspan x="10" y="874">  │     │   ├─┬ load-json-file@1.1.0 </tspan>
<tspan x="10" y="890">  │     │   │ ├── graceful-fs@4.1.11 </tspan>
<tspan x="10" y="906">  │     │   │ ├─┬ parse-json@2.2.0 </tspan>
<tspan x="10" y="922">  │     │   │ │ └─┬ error-ex@1.3.1 </tspan>
<tspan x="10" y="938">  │     │   │ │   └── is-arrayish@0.2.1 </tspan>
<tspan x="10" y="954">  │     │   │ ├── pify@2.3.0 </tspan>
<tspan x="10" y="970">  │     │   │ └─┬ strip-bom@2.0.0 </tspan>
<tspan x="10" y="986">  │     │   │   └── is-utf8@0.2.1 </tspan>
<tspan x="10" y="1002">  │     │   └── path-type@1.1.0 </tspan>
<tspan x="10" y="1018">  │     ├─┬ redent@1.0.0 </tspan>
<tspan x="10" y="1034">  │     │ ├─┬ indent-string@2.1.0 </tspan>
<tspan x="10" y="1050">  │     │ │ └─┬ repeating@2.0.1 </tspan>
<tspan x="10" y="1066">  │     │ │   └─┬ is-finite@1.0.2 </tspan>
<tspan x="10" y="1082">  │     │ │     └── number-is-nan@1.0.1 </tspan>
<tspan x="10" y="1098">  │     │ └── strip-indent@1.0.1 </tspan>
<tspan x="10" y="1114">  │     └── trim-newlines@1.0.0 </tspan>
<tspan x="10" y="1130">  ├─┬ object.assign@4.0.4 </tspan>
<tspan x="10" y="1146">  │ ├─┬ define-properties@1.1.2 </tspan>
<tspan x="10" y="1162">  │ │ └── foreach@2.0.5 </tspan>
<tspan x="10" y="1178">  │ ├── function-bind@1.1.0 </tspan>
<tspan x="10" y="1194">  │ └── object-keys@1.0.11 </tspan>
<tspan x="10" y="1210">  ├─┬ uglify-js@2.8.22 </tspan>
<tspan x="10" y="1226">  │ ├── source-map@0.5.6 </tspan>
<tspan x="10" y="1242">  │ ├── uglify-to-browserify@1.0.2 </tspan>
<tspan x="10" y="1258">  │ └─┬ yargs@3.10.0 </tspan>
<tspan x="10" y="1274">  │   ├── camelcase@1.2.1 </tspan>
<tspan x="10" y="1290">  │   ├─┬ cliui@2.1.0 </tspan>
<tspan x="10" y="1306">  │   │ ├─┬ center-align@0.1.3 </tspan>
<tspan x="10" y="1322">  │   │ │ ├─┬ align-text@0.1.4 </tspan>
<tspan x="10" y="1338">  │   │ │ │ ├─┬ kind-of@3.1.0 </tspan>
<tspan x="10" y="1354">  │   │ │ │ │ └── is-buffer@1.1.5 </tspan>
<tspan x="10" y="1370">  │   │ │ │ ├── longest@1.0.1 </tspan>
<tspan x="10" y="1386">  │   │ │ │ └── repeat-string@1.6.1 </tspan>
<tspan x="10" y="1402">  │   │ │ └── lazy-cache@1.0.4 </tspan>
<tspan x="10" y="1418">  │   │ ├── right-align@0.1.3 </tspan>
<tspan x="10" y="1434">  │   │ └── wordwrap@0.0.2 </tspan>
<tspan x="10" y="1450">  │   ├── decamelize@1.2.0 </tspan>
<tspan x="10" y="1466">  │   └── window-size@0.1.0 </tspan>
<tspan x="10" y="1482">  └── uri-path@1.0.0</tspan>
</text>
</svg>
